<svg xmlns="http://www.w3.org/2000/svg" width="32" height="33" viewBox="0 0 32 33" fill="none">
  <g clip-path="url(#clip0_152_55)">
    <path d="M16.4318 24.7776H13.7793C13.3359 24.7776 12.9773 24.419 12.9773 23.9757V17.9959H11.4313C10.9879 17.9959 10.6294 17.6374 10.6294 17.194V14.6301C10.6294 14.1867 10.9879 13.8282 11.4313 13.8282H12.9773V12.5443C12.9773 11.2721 13.3783 10.1887 14.134 9.41374C14.8935 8.63494 15.9537 8.22241 17.2029 8.22241H19.2231C19.6665 8.22627 20.0251 8.58482 20.0251 9.0282V11.407C20.0251 11.8504 19.6665 12.2089 19.2231 12.2089H17.8622C17.4458 12.2089 17.3417 12.2937 17.3186 12.3169C17.28 12.3593 17.2376 12.4788 17.2376 12.8104V13.8243H19.1229C19.2655 13.8243 19.4005 13.859 19.52 13.9246C19.7745 14.0672 19.9325 14.3371 19.9325 14.6263V17.1901C19.9325 17.6335 19.5701 17.992 19.1267 17.992H17.2376V23.9718C17.2376 24.4152 16.879 24.7737 16.4357 24.7737L16.4318 24.7776ZM13.9489 23.806H16.266V17.5602C16.266 17.2634 16.5051 17.0243 16.8019 17.0243H18.961V14.7959H16.8019C16.5051 14.7959 16.266 14.5569 16.266 14.26V12.8104C16.266 12.4325 16.3046 12.0007 16.5899 11.6769C16.9369 11.2836 17.4805 11.2412 17.8622 11.2412H19.0573V9.19783H17.2029C15.1981 9.19783 13.9489 10.4778 13.9489 12.5443V14.2639C13.9489 14.5607 13.7099 14.7998 13.413 14.7998H11.601V17.0282H13.413C13.7099 17.0282 13.9489 17.2672 13.9489 17.5641V23.8099V23.806Z" fill="#455174"/>
    <path d="M16 32.1068C7.3947 32.1068 0.39325 25.1054 0.39325 16.5001C0.39325 7.89476 7.3947 0.893311 16 0.893311C24.6053 0.893311 31.6067 7.89476 31.6067 16.5001C31.6067 25.1054 24.6053 32.1068 16 32.1068ZM16 1.86102C7.92674 1.86102 1.36096 8.4268 1.36096 16.5001C1.36096 24.5733 7.92674 31.1391 16 31.1391C24.0732 31.1391 30.639 24.5733 30.639 16.5001C30.639 8.4268 24.0732 1.86102 16 1.86102Z" fill="#455174"/>
  </g>
  <defs>
    <clipPath id="clip0_152_55">
      <rect width="32" height="32" fill="white" transform="translate(0 0.5)"/>
    </clipPath>
  </defs>
</svg>