<svg xmlns="http://www.w3.org/2000/svg" width="32" height="33" viewBox="0 0 32 33" fill="none">
  <g clip-path="url(#clip0_152_63)">
    <path d="M18.8916 15.6596L14.7431 13.3887C14.5041 13.2576 14.2227 13.2615 13.9875 13.4003C13.7523 13.5391 13.6135 13.7858 13.6135 14.0557V18.5588C13.6135 18.8287 13.7523 19.0755 13.9836 19.2143C14.1031 19.2875 14.2381 19.3222 14.373 19.3222C14.4964 19.3222 14.6198 19.2914 14.7354 19.2297L18.8839 16.9974C19.1306 16.8663 19.2848 16.608 19.2848 16.3304C19.2848 16.049 19.1345 15.7945 18.8877 15.6596H18.8916ZM14.7161 17.9921V14.6263L17.8159 16.3227L14.7161 17.9921Z" fill="#455174"/>
    <path d="M25.253 12.7448V12.7371C25.2376 12.5868 25.0795 11.2412 24.4241 10.5588C23.6684 9.75303 22.8125 9.65665 22.4 9.61038C22.3653 9.60653 22.3345 9.60267 22.3075 9.59882H22.2728C19.7899 9.41376 16.0386 9.39062 16.0039 9.39062C15.9653 9.39062 12.2178 9.41376 9.71181 9.59496H9.67711C9.65012 9.60267 9.61928 9.60653 9.58844 9.61038C9.17976 9.65665 8.33542 9.75689 7.57591 10.5897C6.95518 11.2682 6.77398 12.5829 6.7547 12.7294V12.7487C6.74699 12.8104 6.61591 14.3101 6.61591 15.8138V17.221C6.61591 18.7246 6.74699 20.2205 6.7547 20.286V20.2938C6.77012 20.4441 6.92819 21.7627 7.57976 22.4451C8.28916 23.2239 9.18747 23.3241 9.67326 23.382C9.75036 23.3897 9.81591 23.3974 9.85832 23.4051L9.90073 23.4128C11.3349 23.5477 15.8304 23.6171 16.0193 23.621H16.0231H16.027C16.0655 23.621 19.813 23.5979 22.2959 23.4166H22.3306C22.3614 23.4089 22.3961 23.4051 22.4347 23.4012C22.8395 23.3588 23.6839 23.2701 24.428 22.4451C25.0487 21.7665 25.2299 20.4518 25.2492 20.3053V20.286C25.2569 20.2244 25.388 18.7246 25.388 17.221V15.8138C25.388 14.3101 25.2569 12.8142 25.2492 12.7487L25.253 12.7448ZM24.2892 17.2133C24.2892 18.6051 24.1658 20.0393 24.1581 20.1704C24.1118 20.5328 23.9229 21.3656 23.6183 21.6933C23.1518 22.206 22.6699 22.26 22.319 22.2947C22.2766 22.2986 22.2381 22.3024 22.2034 22.3063C19.8014 22.4798 16.1928 22.5068 16.027 22.5068C15.8419 22.5068 11.4121 22.4374 10.0202 22.3063C9.95085 22.2947 9.87374 22.287 9.79277 22.2754C9.38024 22.2292 8.81735 22.1636 8.38554 21.6894L8.37398 21.6779C8.07711 21.3656 7.89205 20.5906 7.84579 20.1704C7.83807 20.0701 7.71085 18.6205 7.71085 17.2094V15.8022C7.71085 14.4104 7.83036 12.98 7.84193 12.8451C7.89591 12.4171 8.09253 11.6345 8.38169 11.3183C8.86362 10.7863 9.37253 10.7285 9.70795 10.6899C9.7388 10.6899 9.76964 10.6822 9.79663 10.6783C12.2333 10.5048 15.8689 10.4779 15.9961 10.4779C16.1272 10.4779 19.759 10.5048 22.1725 10.6783C22.2034 10.6783 22.2342 10.686 22.2689 10.6899C22.6159 10.7285 23.1364 10.7901 23.6183 11.2991H23.6222C23.919 11.6152 24.1041 12.4056 24.1504 12.8335C24.1581 12.926 24.2853 14.3795 24.2853 15.7945V17.2017L24.2892 17.2133Z" fill="#455174"/>
    <path d="M16 32.1068C7.3947 32.1068 0.39325 25.1054 0.39325 16.5001C0.39325 7.89476 7.3947 0.893311 16 0.893311C24.6053 0.893311 31.6029 7.89476 31.6029 16.5001C31.6029 25.1054 24.6014 32.1068 16 32.1068ZM16 1.86102C7.92674 1.86102 1.36096 8.4268 1.36096 16.5001C1.36096 24.5733 7.92674 31.1391 16 31.1391C24.0732 31.1391 30.639 24.5733 30.639 16.5001C30.639 8.4268 24.0732 1.86102 16 1.86102Z" fill="#455174"/>
  </g>
  <defs>
    <clipPath id="clip0_152_63">
      <rect width="32" height="32" fill="white" transform="translate(0 0.5)"/>
    </clipPath>
  </defs>
</svg>