<svg xmlns="http://www.w3.org/2000/svg" width="32" height="33" viewBox="0 0 32 33" fill="none">
  <g clip-path="url(#clip0_152_50)">
    <path d="M19.867 8.07202H12.1369C9.61928 8.07202 7.57205 10.1193 7.57205 12.6368V20.367C7.57205 22.8846 9.61928 24.9318 12.1369 24.9318H19.867C22.3846 24.9318 24.4318 22.8846 24.4318 20.367V12.6368C24.4318 10.1193 22.3846 8.07202 19.867 8.07202ZM23.441 20.367C23.441 22.3371 21.8371 23.9409 19.867 23.9409H12.1369C10.1668 23.9409 8.5629 22.3371 8.5629 20.367V12.6368C8.5629 10.6667 10.1668 9.06286 12.1369 9.06286H19.867C21.8371 9.06286 23.441 10.6667 23.441 12.6368V20.367Z" fill="#455174"/>
    <path d="M16 11.8889C13.4593 11.8889 11.3889 13.9554 11.3889 16.5C11.3889 19.0446 13.4554 21.1111 16 21.1111C18.5446 21.1111 20.6111 19.0446 20.6111 16.5C20.6111 13.9554 18.5446 11.8889 16 11.8889ZM16 20.1202C14.0029 20.1202 12.3798 18.4971 12.3798 16.5C12.3798 14.5029 14.0029 12.8798 16 12.8798C17.9971 12.8798 19.6202 14.5029 19.6202 16.5C19.6202 18.4971 17.9971 20.1202 16 20.1202Z" fill="#455174"/>
    <path d="M20.719 10.2543C19.9672 10.2543 19.3581 10.8673 19.3581 11.6152C19.3581 12.3632 19.9672 12.9762 20.719 12.9762C21.4708 12.9762 22.08 12.3632 22.08 11.6152C22.08 10.8673 21.4708 10.2543 20.719 10.2543ZM20.719 11.9892C20.5147 11.9892 20.3451 11.8234 20.3451 11.6152C20.3451 11.407 20.5147 11.2413 20.719 11.2413C20.9234 11.2413 21.093 11.407 21.093 11.6152C21.093 11.8234 20.9272 11.9892 20.719 11.9892Z" fill="#455174"/>
    <path d="M16 32.1068C7.3947 32.1068 0.393253 25.1054 0.393253 16.5001C0.393253 7.89476 7.3947 0.893311 16 0.893311C24.6053 0.893311 31.6068 7.89476 31.6068 16.5001C31.6068 25.1054 24.6053 32.1068 16 32.1068ZM16 1.86102C7.92675 1.86102 1.36096 8.4268 1.36096 16.5001C1.36096 24.5733 7.92675 31.1391 16 31.1391C24.0733 31.1391 30.639 24.5733 30.639 16.5001C30.639 8.4268 24.0733 1.86102 16 1.86102Z" fill="#455174"/>
  </g>
  <defs>
    <clipPath id="clip0_152_50">
      <rect width="32" height="32" fill="white" transform="translate(0 0.5)"/>
    </clipPath>
  </defs>
</svg>