<svg xmlns="http://www.w3.org/2000/svg" width="32" height="33" viewBox="0 0 32 33" fill="none">
  <g clip-path="url(#clip0_152_58)">
    <path d="M12.1831 11.8619H9.38409C9.0718 11.8619 8.81349 12.1164 8.81349 12.4325V22.9771C8.81349 23.2894 9.06795 23.5477 9.38409 23.5477H12.1831C12.4954 23.5477 12.7537 23.2933 12.7537 22.9771V12.4325C12.7537 12.1203 12.4993 11.8619 12.1831 11.8619ZM11.7783 22.5723H9.78891V12.8374H11.7783V22.5723Z" fill="#455174"/>
    <path d="M10.7836 6.94629C9.68867 6.94629 8.79807 7.83689 8.79807 8.93183C8.79807 10.0268 9.68867 10.9174 10.7836 10.9174C11.8785 10.9174 12.7691 10.0268 12.7691 8.93183C12.7691 7.83689 11.8785 6.94629 10.7836 6.94629ZM10.7836 9.94195C10.2284 9.94195 9.77349 9.48701 9.77349 8.93183C9.77349 8.37665 10.2284 7.92171 10.7836 7.92171C11.3388 7.92171 11.7937 8.37665 11.7937 8.93183C11.7937 9.48701 11.3388 9.94195 10.7836 9.94195Z" fill="#455174"/>
    <path d="M21.8024 13.0995C21.1354 12.5405 20.2834 12.2436 19.4082 12.259C18.8646 12.2706 18.3364 12.4017 17.8545 12.6369V12.4056C17.8545 12.1048 17.6116 11.8619 17.3108 11.8619H14.4617C14.161 11.8619 13.9181 12.1048 13.9181 12.4056V23.0003C13.9181 23.301 14.161 23.5439 14.4617 23.5439H17.3687C17.6386 23.5439 17.8545 23.3241 17.8545 23.0581V16.739C17.8545 16.1993 18.2786 15.7405 18.8183 15.7251C19.3812 15.7097 19.8439 16.1607 19.8439 16.7198V23.0697C19.8439 23.3318 20.0559 23.5477 20.3219 23.5477H23.1133C23.3754 23.5477 23.5913 23.3357 23.5913 23.0697V16.9125C23.5913 15.4359 22.9398 14.0441 21.8063 13.0995H21.8024ZM22.6121 22.5723H20.8154V16.7198C20.8154 15.6364 19.9325 14.7535 18.8492 14.7535C17.7658 14.7535 16.8829 15.6364 16.8829 16.7198V22.5723H14.8935V12.8374H16.8829V13.5468C16.8829 13.6624 16.9214 13.7781 17.0063 13.8706C17.1836 14.0711 17.4921 14.0904 17.6925 13.913C18.1706 13.4889 18.7875 13.246 19.4275 13.2345C20.0675 13.2229 20.6882 13.4427 21.1778 13.8475C22.0916 14.6109 22.6121 15.7251 22.6121 16.9125V22.5723Z" fill="#455174"/>
    <path d="M16 32.1068C7.3947 32.1068 0.39325 25.1054 0.39325 16.5001C0.39325 7.89476 7.3947 0.893311 16 0.893311C24.6053 0.893311 31.6067 7.89476 31.6067 16.5001C31.6067 25.1054 24.6053 32.1068 16 32.1068ZM16 1.86102C7.92674 1.86102 1.36096 8.4268 1.36096 16.5001C1.36096 24.5733 7.92674 31.1391 16 31.1391C24.0732 31.1391 30.639 24.5733 30.639 16.5001C30.639 8.4268 24.0732 1.86102 16 1.86102Z" fill="#455174"/>
  </g>
  <defs>
    <clipPath id="clip0_152_58">
      <rect width="32" height="32" fill="white" transform="translate(0 0.5)"/>
    </clipPath>
  </defs>
</svg>